<svg xmlns="http://www.w3.org/2000/svg" viewBox="0 0 64 64" aria-labelledby="title" role="img">
  <title>AXL DB logo — accelerometer badge (mono)</title>
  <defs>
    <!-- Mask to punch small radial gaps in the ring near the dashes -->
    <mask id="ringGaps" maskUnits="userSpaceOnUse">
      <rect width="64" height="64" fill="#fff"/>
      <!-- Four wedge breaks: narrow at inner edge (~y=11), wider at outer rim (~y=5) -->
      <!-- Top wedge -->
      <polygon points="28,5 36,5 33,11 31,11" fill="#000"/>
      <!-- Rotate around center to get left/right/bottom wedges -->
      <polygon points="28,5 36,5 33,11 31,11" fill="#000" transform="rotate(90 32 32)"/>
      <polygon points="28,5 36,5 33,11 31,11" fill="#000" transform="rotate(180 32 32)"/>
      <polygon points="28,5 36,5 33,11 31,11" fill="#000" transform="rotate(-90 32 32)"/>
      <!-- Two additional wedges on the lower-left side -->
      <polygon points="28,5 36,5 33,11 31,11" fill="#000" transform="rotate(210 32 32)"/>
      <polygon points="28,5 36,5 33,11 31,11" fill="#000" transform="rotate(240 32 32)"/>
    </mask>
    <!-- Mask to create a curved (concentric) gap between hub and needle -->
    <mask id="needleGap" maskUnits="userSpaceOnUse">
      <rect width="64" height="64" fill="#fff"/>
      <!-- Base gap near hub (curved, follows hub circle) -->
      <path d="M 38.82 24.686 A 10 10 0 0 1 41.91 27.46 L 38.0588 28.9128 A 6.8 6.8 0 0 0 36.6376 27.0265 Z" fill="#000"/>
    </mask>
  </defs>
  <!-- Outer ring -->
  <circle cx="32" cy="32" r="24" fill="none" stroke="#ffb224" stroke-width="6" mask="url(#ringGaps)"/>
  <!-- (dots removed) -->
  <!-- Needle (mono) -->
  <!-- Arrow composed of two strokes: base squared, tip rounded; angle ~45° (top-right segment center) -->
  <!-- Arrow as a wedge, matching ring break geometry, pointing to 45° and separated from hub and ring -->
  <polygon points="47.6,20.7 43.3,16.4 36.9,24.9 39.1,27.1" fill="#ffb224"/>
  <!-- Hub -->
  <circle cx="32" cy="32" r="5.5" fill="#ffb224"/>
</svg>

